# xmcd
#
# Track frame offsets:
#	150
#	10484
#	21664
#	34303
#	57053
#	70572
#	89336
#	105216
#	117412
#	128822
#	144382
#	157090
#	169044
#	183320
#	197980
#	208738
#	225917
#	235515
#	250534
#	262313
#	273656
#	284854
#	295405
#	310655
#	326557
#
# Disc length: 4596 seconds
#
# Revision: 1
# Processed by: cddbd v1.5.2PL0 Copyright (c) Steve Scherf et al.
# Submitted via: EZCDAudioConverter 9.0.5.1
#
DISCID=7311f219
DTITLE=Tommy Dell - The Heart and Soul
DYEAR=1999
DGENRE=
TTITLE0=Don't worry about me
TTITLE1=Sometimes
TTITLE2=Teddy Bear
TTITLE3=Golden Ring
TTITLE4=Cry to Me
TTITLE5=Rocky
TTITLE6=Heaven is my woman's love
TTITLE7=It don't hurt anymore
TTITLE8=Bobby, Barbara and Me
TTITLE9=Think it over
TTITLE10=Say forever you'll be mine
TTITLE11=Jack in the box
TTITLE12=Little Rosa
TTITLE13=Take good care of her
TTITLE14=Honey
TTITLE15=What am I living for
TTITLE16=Roses for Mama
TTITLE17=It's only make believe
TTITLE18=Please help me I'm falling
TTITLE19=A white sport coat
TTITLE20=China Doll
TTITLE21=Always on my mind
TTITLE22=To all the girls I've loved before
TTITLE23=White line to Denver
TTITLE24=Hasta Luago
EXTD=
EXTT0=
EXTT1=
EXTT2=
EXTT3=
EXTT4=
EXTT5=
EXTT6=
EXTT7=
EXTT8=
EXTT9=
EXTT10=
EXTT11=
EXTT12=
EXTT13=
EXTT14=
EXTT15=
EXTT16=
EXTT17=
EXTT18=
EXTT19=
EXTT20=
EXTT21=
EXTT22=
EXTT23=
EXTT24=
PLAYORDER=
